<svg xmlns="http://www.w3.org/2000/svg" viewBox="0 0 40.24 40.24"><defs><style>.cls-1{fill:#9bf730;}</style></defs><title>social iconAsset 26 twitter</title><g id="Layer_2" data-name="Layer 2"><g id="front_interface" data-name="front interface"><path class="cls-1" d="M20.12,0A20.12,20.12,0,0,0,0,20.12H0a20.12,20.12,0,0,0,40.24,0h0A20.12,20.12,0,0,0,20.12,0Zm8.53,15.75A12.52,12.52,0,0,1,9.4,26.86,8.87,8.87,0,0,0,15.91,25,4.39,4.39,0,0,1,11.8,22a4.42,4.42,0,0,0,2-.08,4.39,4.39,0,0,1-3.53-4.36,4.58,4.58,0,0,0,2,.55,4.42,4.42,0,0,1-1.36-5.88A12.49,12.49,0,0,0,20,16.81a4.4,4.4,0,0,1,7.49-4,8.94,8.94,0,0,0,2.8-1.07,4.39,4.39,0,0,1-1.94,2.43,8.62,8.62,0,0,0,2.53-.69A9.13,9.13,0,0,1,28.65,15.75Z"/></g></g></svg>