<svg xmlns="http://www.w3.org/2000/svg" viewBox="0 0 40.24 40.24"><defs><style>.cls-1{fill:#9bf730;}</style></defs><title>social iconAsset 27 linkedin</title><g id="Layer_2" data-name="Layer 2"><g id="front_interface" data-name="front interface"><path class="cls-1" d="M20.12,0A20.12,20.12,0,0,0,0,20.12H0a20.12,20.12,0,0,0,40.24,0h0A20.12,20.12,0,0,0,20.12,0Zm-5,29.09H11V15.64h4.16Zm-2.1-15.22a2.48,2.48,0,1,1,2.46-2.48A2.47,2.47,0,0,1,13.06,13.87ZM30.77,29.09H26.62V22c0-1.94-.73-3-2.27-3s-2.53,1.12-2.53,3v7.06h-4V15.64h4v1.81a4.69,4.69,0,0,1,4.05-2.23c2.85,0,4.9,1.75,4.9,5.35Z"/></g></g></svg>