<svg xmlns="http://www.w3.org/2000/svg" viewBox="0 0 97.45 45.57"><defs><style>.cls-1{fill:#494949;}</style></defs><g id="Layer_2" data-name="Layer 2"><g id="text_content" data-name="text content"><path class="cls-1" d="M82.6,24.47H79.78V34.93H82.6c1.75,0,3.85-2.33,3.85-5.23S84.35,24.47,82.6,24.47Z"/><path class="cls-1" d="M74.67,0A22.79,22.79,0,1,0,97.45,22.78,22.82,22.82,0,0,0,74.67,0ZM63.6,34.57h5.28a.5.5,0,0,1,.5.5.51.51,0,0,1-.5.5H62.15l0,0h0L62,35.43h0l0,0h0v0h0v0l0,0h0v0h0v0h0s0-.07,0-.1V28.58a.51.51,0,1,1,1,0v5.28L85.74,11H80.46a.5.5,0,0,1,0-1h6.77l.07.06h0l.06.06h0v0h0v0h0l0,0h0v0h0v0h0v0h0a.38.38,0,0,1,0,.1V17a.5.5,0,0,1-.5.5.5.5,0,0,1-.5-.5V11.71ZM71.47,11h-4V22a.5.5,0,0,1-1,0V11h-4a.5.5,0,1,1,0-1h9.08a.5.5,0,1,1,0,1Zm16,18.7c0,3.51-2.6,6.23-4.85,6.23H79.28a.5.5,0,0,1-.5-.5V24a.51.51,0,0,1,.5-.51H82.6C84.85,23.46,87.45,26.19,87.45,29.7Z"/><path class="cls-1" d="M2.44,4.33v8.3H1.62V4.33H0V3.61H4.06v.72Z"/><path class="cls-1" d="M6.65,3.61a2.07,2.07,0,0,1,1.7.63,3,3,0,0,1,.5,1.86,3.36,3.36,0,0,1-.28,1.42,1.72,1.72,0,0,1-1,.9c.22.68.46,1.38.7,2.11s.47,1.43.7,2.1H8.15l-1.32-4H5.57v4H4.78v-9Zm-1.08.72V7.86h1a1.35,1.35,0,0,0,1.16-.45,2.17,2.17,0,0,0,.33-1.32A3.14,3.14,0,0,0,8,5.37a1.43,1.43,0,0,0-.25-.56,1.06,1.06,0,0,0-.47-.35,2,2,0,0,0-.75-.13Z"/><path class="cls-1" d="M13.47,12.63,13,10.45H10.75l-.47,2.18H9.53l1.94-9h.8l2,9Zm-1.62-7.7-.43,2.18L10.87,9.7h2L12.3,7.08l-.41-2.15Z"/><path class="cls-1" d="M15.81,5.81v6.82H15v-9h.75c.06.13.13.31.23.56l.34.81c.12.29.25.61.39.93s.26.63.39.93l.33.81c.1.24.18.43.24.56l.91,2.26h0V3.61h.79v9h-.75c-.05-.13-.13-.31-.23-.55l-.33-.8c-.13-.3-.26-.61-.39-.94s-.27-.63-.39-.92L17,8.62c-.11-.24-.19-.42-.24-.55l-.92-2.26Z"/><path class="cls-1" d="M24.67,10.22a4.65,4.65,0,0,1-.11,1,1.86,1.86,0,0,1-.35.78,1.61,1.61,0,0,1-.64.51,2.8,2.8,0,0,1-1.92,0,1.66,1.66,0,0,1-.63-.42,1.73,1.73,0,0,1-.38-.64,2.47,2.47,0,0,1-.12-.79l.79-.17a2.33,2.33,0,0,0,.06.53,1.35,1.35,0,0,0,.22.45,1.22,1.22,0,0,0,.39.31,1.51,1.51,0,0,0,.61.11,1.36,1.36,0,0,0,.69-.14,1,1,0,0,0,.39-.37,1.77,1.77,0,0,0,.17-.55,6.5,6.5,0,0,0,0-.66,6.32,6.32,0,0,0,0-.7A1,1,0,0,0,23.65,9a1.31,1.31,0,0,0-.4-.37,6,6,0,0,0-.72-.36,5.89,5.89,0,0,1-1-.56,2.46,2.46,0,0,1-.59-.56,1.68,1.68,0,0,1-.26-.62,3.26,3.26,0,0,1-.07-.72,3,3,0,0,1,.13-.93,1.86,1.86,0,0,1,.38-.74,1.69,1.69,0,0,1,.64-.47,2.19,2.19,0,0,1,.92-.18,2.3,2.3,0,0,1,1,.18,1.63,1.63,0,0,1,.62.46,1.9,1.9,0,0,1,.33.63,2.58,2.58,0,0,1,.1.66l-.79.2a1.66,1.66,0,0,0-.28-1,1.15,1.15,0,0,0-1-.39,1.18,1.18,0,0,0-.63.15,1.15,1.15,0,0,0-.38.38,1.43,1.43,0,0,0-.18.5,3.27,3.27,0,0,0-.05.53,2.15,2.15,0,0,0,.06.53,1,1,0,0,0,.21.44,1.93,1.93,0,0,0,.47.4,6.11,6.11,0,0,0,.85.42,4.1,4.1,0,0,1,.92.48,2,2,0,0,1,.51.56,1.88,1.88,0,0,1,.22.68A5.57,5.57,0,0,1,24.67,10.22Z"/><path class="cls-1" d="M25.87,12.63v-9h.82v9Z"/><path class="cls-1" d="M29.94,4.33v8.3h-.82V4.33H27.5V3.61h4.06v.72Z"/><path class="cls-1" d="M32.39,12.63v-9h.82v9Z"/><path class="cls-1" d="M38.68,10.4a2.57,2.57,0,0,1-.51,1.73,2.35,2.35,0,0,1-3.08,0,2.26,2.26,0,0,1-.5-1.55V5.86A3.7,3.7,0,0,1,34.7,5,2,2,0,0,1,35,4.21a1.65,1.65,0,0,1,.63-.5,2.37,2.37,0,0,1,1-.18,2.73,2.73,0,0,1,1,.16,1.58,1.58,0,0,1,.63.47,2.07,2.07,0,0,1,.33.72,4,4,0,0,1,.11,1Zm-.79-4.69a2,2,0,0,0-.07-.55,1.46,1.46,0,0,0-.2-.46,1.18,1.18,0,0,0-.38-.32,1.32,1.32,0,0,0-.59-.12,1.08,1.08,0,0,0-.62.16,1.27,1.27,0,0,0-.39.41,1.83,1.83,0,0,0-.2.54,2.64,2.64,0,0,0-.06.55v4.7a1.81,1.81,0,0,0,.08.51,1.38,1.38,0,0,0,.21.44,1.1,1.1,0,0,0,.39.31,1.28,1.28,0,0,0,.58.12,1,1,0,0,0,1-.45,1.89,1.89,0,0,0,.29-1.06Z"/><path class="cls-1" d="M40.73,5.81v6.82h-.8v-9h.76l.22.56.34.81c.13.29.25.61.39.93s.26.63.39.93.24.57.33.81.18.43.24.56l.91,2.26h.05V3.61h.79v9H43.6c-.05-.13-.13-.31-.22-.55l-.34-.8c-.13-.3-.26-.61-.39-.94s-.26-.63-.39-.92-.24-.56-.34-.8-.18-.42-.24-.55l-.92-2.26Z"/><path class="cls-1" d="M38.16,26.34a1.51,1.51,0,0,1-.78-.16,1.63,1.63,0,0,1-.49-.46h0v.54h-.79V16.85h.79v3.74h0a1.35,1.35,0,0,1,.58-.58,1.63,1.63,0,0,1,.74-.19,1.52,1.52,0,0,1,.88.23,1.37,1.37,0,0,1,.46.57,2.69,2.69,0,0,1,.17.8c0,.31,0,.64.05,1v.9c0,.49,0,1-.08,1.48a2.25,2.25,0,0,1-.22.8,1.42,1.42,0,0,1-.39.47,1.46,1.46,0,0,1-.48.21A2.47,2.47,0,0,1,38.16,26.34Zm-.24-.75a1,1,0,0,0,.58-.15.91.91,0,0,0,.36-.51,3.53,3.53,0,0,0,.1-.7c0-.29,0-.64,0-1.05s0-.85,0-1.22a2.55,2.55,0,0,0-.14-.83.85.85,0,0,0-.88-.53.92.92,0,0,0-.51.13,1.07,1.07,0,0,0-.34.33,1.76,1.76,0,0,0-.18.47,3,3,0,0,0,0,.52V24.4a1.28,1.28,0,0,0,.29.86A.94.94,0,0,0,37.92,25.59Z"/><path class="cls-1" d="M42.36,25.07c.09-.41.19-.85.28-1.3s.19-.89.29-1.3l.62-2.57h.8l-1.91,7.48c-.06.19-.12.37-.19.54a1.88,1.88,0,0,1-.28.46,1.21,1.21,0,0,1-.42.31,1.48,1.48,0,0,1-.59.11h-.3v-.68h.21a.65.65,0,0,0,.58-.28,2.25,2.25,0,0,0,.32-.85l.19-.71-1.7-6.38h.84c.12.47.23.93.34,1.39s.21.93.32,1.4c.05.18.09.38.14.6s.11.44.16.66.1.43.15.63.08.36.11.49Z"/><path class="cls-1" d="M19.33,33.29a2.39,2.39,0,0,1,1.27.28,1.5,1.5,0,0,1,.64.94,5.05,5.05,0,0,1,.15,1.34v3.87a4.59,4.59,0,0,1-.16,1.3,1.7,1.7,0,0,1-.32.63,1.75,1.75,0,0,1-1,.61,4.65,4.65,0,0,1-.66.05H17.3v-9Zm1.24,2.28a3.06,3.06,0,0,0-.06-.63,1.47,1.47,0,0,0-.22-.49,1.23,1.23,0,0,0-.42-.32,1.73,1.73,0,0,0-.65-.11H18.09v7.57h1.15a1.23,1.23,0,0,0,1-.39A1.83,1.83,0,0,0,20.57,40Z"/><path class="cls-1" d="M22.67,42.31v-9h3.77V34h-3v3.33h2.61v.72H23.46v3.52h3v.72Z"/><path class="cls-1" d="M31.24,39.9a4.58,4.58,0,0,1-.11,1,2,2,0,0,1-.34.79,1.72,1.72,0,0,1-.65.5,2.38,2.38,0,0,1-1,.18,2.59,2.59,0,0,1-.93-.15,1.85,1.85,0,0,1-.64-.43,1.69,1.69,0,0,1-.38-.63,2.58,2.58,0,0,1-.12-.8l.79-.16a1.81,1.81,0,0,0,.07.52,1.17,1.17,0,0,0,.21.45,1.1,1.1,0,0,0,.39.31,1.64,1.64,0,0,0,1.3,0,1,1,0,0,0,.39-.37,1.55,1.55,0,0,0,.17-.54c0-.21,0-.43,0-.66a6.52,6.52,0,0,0,0-.71,1.2,1.2,0,0,0-.18-.48,1.49,1.49,0,0,0-.41-.37A6,6,0,0,0,29.1,38a5.89,5.89,0,0,1-1-.56,2.23,2.23,0,0,1-.58-.56,1.49,1.49,0,0,1-.27-.62,4,4,0,0,1-.07-.72,3.37,3.37,0,0,1,.13-.93,2,2,0,0,1,.38-.73,1.93,1.93,0,0,1,.64-.48,2.19,2.19,0,0,1,.92-.18,2.3,2.3,0,0,1,1,.18,1.65,1.65,0,0,1,.62.46,1.59,1.59,0,0,1,.33.63,2.27,2.27,0,0,1,.1.67l-.79.19a1.66,1.66,0,0,0-.28-1,1.14,1.14,0,0,0-1-.38,1.18,1.18,0,0,0-.63.15,1.12,1.12,0,0,0-.38.37A1.43,1.43,0,0,0,28,35a3.23,3.23,0,0,0,0,.53,2.12,2.12,0,0,0,.05.53,1,1,0,0,0,.21.44,2,2,0,0,0,.47.41,7.68,7.68,0,0,0,.85.41,4.28,4.28,0,0,1,.92.49,1.88,1.88,0,0,1,.51.55,1.94,1.94,0,0,1,.23.69A7.12,7.12,0,0,1,31.24,39.9Z"/><path class="cls-1" d="M32.44,42.31v-9h.82v9Z"/><path class="cls-1" d="M36.67,42.4a2,2,0,0,1-1.49-.53,2.1,2.1,0,0,1-.52-1.54v-4.7a4.1,4.1,0,0,1,.1-1,1.92,1.92,0,0,1,.33-.77,1.55,1.55,0,0,1,.62-.5,2.28,2.28,0,0,1,1-.19,2,2,0,0,1,1.45.5,2,2,0,0,1,.53,1.45l-.79.19h0a1.49,1.49,0,0,0-.32-1.06,1.16,1.16,0,0,0-.88-.34,1.09,1.09,0,0,0-.57.13,1.2,1.2,0,0,0-.37.34,1.63,1.63,0,0,0-.2.49,2.1,2.1,0,0,0-.07.56v4.83a1.79,1.79,0,0,0,.07.51,1.32,1.32,0,0,0,.2.45,1.12,1.12,0,0,0,.37.31,1.2,1.2,0,0,0,.57.12h0a1.37,1.37,0,0,0,.91-.32,1.1,1.1,0,0,0,.36-.87V38.24H36.85v-.7h1.88v2.87a2.1,2.1,0,0,1-.16.86,1.77,1.77,0,0,1-.45.62,1.86,1.86,0,0,1-.65.38A2.36,2.36,0,0,1,36.67,42.4Z"/><path class="cls-1" d="M40.73,35.5v6.81h-.8v-9h.76c.05.13.12.32.22.56l.34.81q.2.45.39.93c.13.33.26.64.39.94s.24.56.33.81.18.42.24.55l.91,2.26h.05V33.29h.79v9H43.6l-.22-.55c-.1-.23-.22-.5-.34-.8L42.65,40q-.19-.49-.39-.93c-.12-.3-.24-.56-.34-.8s-.18-.42-.24-.55l-.92-2.25Z"/></g></g></svg>